<svg xmlns="http://www.w3.org/2000/svg" viewBox="0 0 39.35 39.35"><defs><style>.cls-1{fill:#f2f2f2;}</style></defs><g id="Capa_2" data-name="Capa 2"><g id="Informe_CNC" data-name="Informe CNC"><g id="g10"><g id="g12"><path id="path14" class="cls-1" d="M19.67,0c-5.34,0-6,0-8.11.12A14.45,14.45,0,0,0,6.79,1,10,10,0,0,0,1,6.79a14.45,14.45,0,0,0-.91,4.77C0,13.66,0,14.33,0,19.67s0,6,.12,8.12A14.45,14.45,0,0,0,1,32.56a10,10,0,0,0,5.76,5.76,14.71,14.71,0,0,0,4.77.91c2.1.1,2.77.12,8.11.12s6,0,8.12-.12a14.71,14.71,0,0,0,4.77-.91,10,10,0,0,0,5.76-5.76,14.71,14.71,0,0,0,.91-4.77c.1-2.1.12-2.77.12-8.12s0-6-.12-8.11a14.71,14.71,0,0,0-.91-4.77A10,10,0,0,0,32.56,1,14.45,14.45,0,0,0,27.79.12C25.69,0,25,0,19.67,0Zm0,3.54c5.26,0,5.88,0,8,.12a11,11,0,0,1,3.66.68,6,6,0,0,1,2.26,1.47A6.1,6.1,0,0,1,35,8.07a10.92,10.92,0,0,1,.68,3.65c.09,2.08.11,2.7.11,8s0,5.88-.11,8A11,11,0,0,1,35,31.28,6.51,6.51,0,0,1,31.28,35a11,11,0,0,1-3.66.68c-2.07.09-2.69.11-7.95.11s-5.87,0-8-.11A10.92,10.92,0,0,1,8.07,35a6.1,6.1,0,0,1-2.26-1.47,6,6,0,0,1-1.47-2.26,11,11,0,0,1-.68-3.66c-.1-2.07-.12-2.69-.12-7.95s0-5.87.12-8a10.92,10.92,0,0,1,.68-3.65A6,6,0,0,1,5.81,5.81,6,6,0,0,1,8.07,4.34a10.92,10.92,0,0,1,3.65-.68c2.08-.1,2.7-.12,8-.12"/><path id="path16-2" class="cls-1" d="M19.67,26.23a6.56,6.56,0,1,1,6.56-6.56A6.55,6.55,0,0,1,19.67,26.23Zm0-16.66a10.11,10.11,0,1,0,10.11,10.1A10.1,10.1,0,0,0,19.67,9.57"/><path id="path18" class="cls-1" d="M32.54,9.17a2.36,2.36,0,1,1-2.36-2.36,2.36,2.36,0,0,1,2.36,2.36"/></g></g></g></g></svg>