<svg xmlns="http://www.w3.org/2000/svg" viewBox="0 0 47.07 38.06"><defs><style>.cls-1{fill:#f2f2f2;}</style></defs><g id="Capa_2" data-name="Capa 2"><g id="Informe_CNC" data-name="Informe CNC"><path id="path1193" class="cls-1" d="M45.69.65a26.79,26.79,0,0,1-2.5,1.24C42,2.37,39.39,3,39.39,3S35.66-1.91,28.47.84c-7.25,3.48-5.32,10.89-5.32,10.89a24.66,24.66,0,0,1-8.71-1.84A37.48,37.48,0,0,1,7,5.6,36.21,36.21,0,0,1,3.22,1.65s-3.54,5.86,1,11.2a12.86,12.86,0,0,0,2,1.72A17.62,17.62,0,0,1,4,14.24a18.44,18.44,0,0,1-2.14-.86,9.57,9.57,0,0,0,4.85,8.49A11.58,11.58,0,0,0,9.5,23a15,15,0,0,1-2,.34,17.42,17.42,0,0,1-2.27-.19,10.7,10.7,0,0,0,3.71,5,11.28,11.28,0,0,0,5.3,1.68,21.23,21.23,0,0,1-9.95,4,31.44,31.44,0,0,1-4.3,0,25.69,25.69,0,0,0,5.55,2.71,48.73,48.73,0,0,0,5.86,1.42,41.62,41.62,0,0,0,8.1-.19,26.3,26.3,0,0,0,10.27-3.88,27.61,27.61,0,0,0,9.73-11.28,37.19,37.19,0,0,0,2.32-7.84,46.17,46.17,0,0,0,.36-5.3s1.57-1.23,2.27-1.94c1-1,2.61-3.16,2.61-3.16a25.18,25.18,0,0,1-2.83,1.14A24.91,24.91,0,0,1,41.3,6a13.69,13.69,0,0,0,1.56-1,9.92,9.92,0,0,0,1.76-2A17.15,17.15,0,0,0,45.69.65Z"/></g></g></svg>