<svg xmlns="http://www.w3.org/2000/svg" viewBox="0 0 236.65 28.8"><defs><style>.cls-1{fill:#fd910a;}</style></defs><g id="Capa_2" data-name="Capa 2"><g id="Informe_CNC" data-name="Informe CNC"><path class="cls-1" d="M17.53,8.57A1.67,1.67,0,0,1,17,8.49c-1.93-.67-3.82-1.33-5.68-2a1.5,1.5,0,1,1,1-2.82q2.75,1,5.63,2a1.5,1.5,0,0,1-.49,2.92Z"/><path class="cls-1" d="M138.73,28.8h-.26c-4,0-8.11-.07-12.13-.2a1.49,1.49,0,0,1-1.45-1.54,1.53,1.53,0,0,1,1.55-1.46c4,.13,8,.2,12,.2h.26a1.5,1.5,0,0,1,0,3Zm12.34-.21a1.5,1.5,0,0,1,0-3c4.08-.14,8.21-.35,12.28-.62a1.5,1.5,0,1,1,.2,3c-4.1.28-8.26.49-12.38.63Zm-37-.59H114c-4-.26-8-.59-11.91-1l-.44-.05a1.5,1.5,0,1,1,.3-3l.43,0c3.92.39,7.89.71,11.82,1a1.5,1.5,0,0,1-.1,3Zm61.64-1.06a1.5,1.5,0,0,1-.15-3c4.06-.4,8.17-.88,12.22-1.42a1.5,1.5,0,1,1,.39,3c-4.07.54-8.22,1-12.31,1.44ZM89.5,25.56l-.2,0C85.22,25,81.1,24.38,77,23.7a1.5,1.5,0,1,1,.49-2.95c4,.67,8.12,1.28,12.16,1.82a1.5,1.5,0,0,1-.19,3Zm110.67-1.89a1.5,1.5,0,0,1-.25-3c4-.67,8.1-1.42,12.1-2.23a1.5,1.5,0,0,1,.59,2.94c-4,.81-8.14,1.57-12.19,2.25Zm-135-2.18a1.53,1.53,0,0,1-.3,0c-4-.81-8.11-1.71-12.11-2.65a1.5,1.5,0,0,1,.69-2.92c4,.94,8,1.82,12,2.63a1.5,1.5,0,0,1-.29,3Zm-24-5.67a1.32,1.32,0,0,1-.39-.06c-4-1.07-8-2.23-11.91-3.44a1.5,1.5,0,0,1,.88-2.87c3.9,1.2,7.88,2.35,11.82,3.42a1.5,1.5,0,0,1-.4,3Z"/><path class="cls-1" d="M224.39,18.8a1.5,1.5,0,0,1-.34-3q3-.71,5.81-1.42a1.5,1.5,0,1,1,.73,2.91q-2.85.72-5.85,1.43A1.39,1.39,0,0,1,224.39,18.8Z"/><polygon class="cls-1" points="0 0.56 14.19 13.7 12.79 5.36 19.34 0 0 0.56"/><path class="cls-1" d="M231.54,22.47a6.77,6.77,0,1,0-8.22-4.9A6.76,6.76,0,0,0,231.54,22.47Z"/></g></g></svg>